<svg width="128" height="128" viewBox="0 0 128 128" fill="none" xmlns="http://www.w3.org/2000/svg">
<rect y="63.6396" width="90" height="90" transform="rotate(-45 0 63.6396)" fill="url(#paint0_radial_2_28)"/>
<rect x="7.99399" y="63.6127" width="78.45" height="10" transform="rotate(-45 7.99399 63.6127)" fill="white"/>
<rect x="78" y="94.6396" width="59" height="10" transform="rotate(-90 78 94.6396)" fill="white"/>
<rect x="53" y="109.64" width="89" height="10" transform="rotate(-90 53 109.64)" fill="white"/>
<path d="M78 94.6396H88L78 104.64V94.6396Z" fill="white"/>
<rect x="15" y="60.6396" width="48" height="10" fill="white"/>
<path d="M53 109.64H63V119.64L53 109.64Z" fill="white"/>
<path d="M53 109.64H63V119.64L53 109.64Z" fill="white"/>
<rect x="63.4247" y="8.16434" width="78.5852" height="10" transform="rotate(45 63.4247 8.16434)" fill="white"/>
<defs>
<radialGradient id="paint0_radial_2_28" cx="0" cy="0" r="1" gradientUnits="userSpaceOnUse" gradientTransform="translate(45 108.64) rotate(90) scale(45)">
<stop offset="0.255"/>
<stop offset="0.935" stop-color="#212060"/>
<stop offset="1" stop-color="#212060"/>
</radialGradient>
</defs>
</svg>
